<mxfile host="app.diagrams.net" modified="2022-02-23T07:05:42.357Z" agent="5.0 (X11)" etag="CSUJF0GFp9CWaqhkjCmF" version="16.5.4" type="github">
  <diagram id="9TNxdnq5c0PGhvhAwBx2" name="Page-1">
    <mxGraphModel dx="1099" dy="799" grid="1" gridSize="10" guides="1" tooltips="1" connect="1" arrows="1" fold="1" page="1" pageScale="1" pageWidth="1654" pageHeight="2336" math="0" shadow="0">
      <root>
        <mxCell id="0" />
        <mxCell id="1" parent="0" />
        <mxCell id="WGvVJlKv6pwV7CI6BIiY-3" value="" style="edgeStyle=orthogonalEdgeStyle;rounded=0;orthogonalLoop=1;jettySize=auto;html=1;" edge="1" parent="1" source="WGvVJlKv6pwV7CI6BIiY-1" target="WGvVJlKv6pwV7CI6BIiY-2">
          <mxGeometry relative="1" as="geometry" />
        </mxCell>
        <mxCell id="WGvVJlKv6pwV7CI6BIiY-1" value="&lt;div&gt;UpdateMapInfoMsg()&lt;/div&gt;&lt;div&gt;更新地图信息，输出车道模型&lt;br&gt;&lt;/div&gt;" style="rounded=0;whiteSpace=wrap;html=1;" vertex="1" parent="1">
          <mxGeometry x="450" y="180" width="120" height="60" as="geometry" />
        </mxCell>
        <mxCell id="WGvVJlKv6pwV7CI6BIiY-5" value="" style="edgeStyle=orthogonalEdgeStyle;rounded=0;orthogonalLoop=1;jettySize=auto;html=1;" edge="1" parent="1" source="WGvVJlKv6pwV7CI6BIiY-2" target="WGvVJlKv6pwV7CI6BIiY-4">
          <mxGeometry relative="1" as="geometry" />
        </mxCell>
        <mxCell id="WGvVJlKv6pwV7CI6BIiY-7" style="edgeStyle=orthogonalEdgeStyle;rounded=0;orthogonalLoop=1;jettySize=auto;html=1;entryX=0.5;entryY=0;entryDx=0;entryDy=0;" edge="1" parent="1" source="WGvVJlKv6pwV7CI6BIiY-2" target="WGvVJlKv6pwV7CI6BIiY-6">
          <mxGeometry relative="1" as="geometry" />
        </mxCell>
        <mxCell id="WGvVJlKv6pwV7CI6BIiY-2" value="&lt;div&gt;GetRoadLanes(current_road_id)&lt;/div&gt;&lt;div&gt;根据当前道路id获取道路上的&lt;/div&gt;&lt;div&gt;车道信息&lt;br&gt;&lt;/div&gt;" style="whiteSpace=wrap;html=1;rounded=0;" vertex="1" parent="1">
          <mxGeometry x="415" y="280" width="190" height="60" as="geometry" />
        </mxCell>
        <mxCell id="WGvVJlKv6pwV7CI6BIiY-9" value="" style="edgeStyle=orthogonalEdgeStyle;rounded=0;orthogonalLoop=1;jettySize=auto;html=1;" edge="1" parent="1" source="WGvVJlKv6pwV7CI6BIiY-4" target="WGvVJlKv6pwV7CI6BIiY-8">
          <mxGeometry relative="1" as="geometry" />
        </mxCell>
        <mxCell id="WGvVJlKv6pwV7CI6BIiY-4" value="&lt;div&gt;CaculateFrontLines()&lt;/div&gt;&lt;div&gt;计算前向车道信息&lt;br&gt;&lt;/div&gt;" style="whiteSpace=wrap;html=1;rounded=0;" vertex="1" parent="1">
          <mxGeometry x="340" y="390" width="120" height="60" as="geometry" />
        </mxCell>
        <mxCell id="WGvVJlKv6pwV7CI6BIiY-29" value="" style="edgeStyle=orthogonalEdgeStyle;rounded=0;orthogonalLoop=1;jettySize=auto;html=1;" edge="1" parent="1" source="WGvVJlKv6pwV7CI6BIiY-6" target="WGvVJlKv6pwV7CI6BIiY-25">
          <mxGeometry relative="1" as="geometry" />
        </mxCell>
        <mxCell id="WGvVJlKv6pwV7CI6BIiY-6" value="&lt;div&gt;CaculateBackLines()&lt;/div&gt;&lt;div&gt;计算后向车道信息&lt;br&gt;&lt;/div&gt;" style="whiteSpace=wrap;html=1;rounded=0;" vertex="1" parent="1">
          <mxGeometry x="590" y="390" width="120" height="60" as="geometry" />
        </mxCell>
        <mxCell id="WGvVJlKv6pwV7CI6BIiY-13" value="" style="edgeStyle=orthogonalEdgeStyle;rounded=0;orthogonalLoop=1;jettySize=auto;html=1;" edge="1" parent="1" source="WGvVJlKv6pwV7CI6BIiY-8" target="WGvVJlKv6pwV7CI6BIiY-12">
          <mxGeometry relative="1" as="geometry" />
        </mxCell>
        <mxCell id="WGvVJlKv6pwV7CI6BIiY-8" value="&lt;div&gt;&lt;br&gt;&lt;/div&gt;&lt;div&gt;GetSuccessorLanesInxRoad()&lt;/div&gt;&lt;div&gt;计算当前车道的后继车道&lt;br&gt;&lt;/div&gt;" style="whiteSpace=wrap;html=1;rounded=0;" vertex="1" parent="1">
          <mxGeometry x="310" y="490" width="180" height="60" as="geometry" />
        </mxCell>
        <mxCell id="WGvVJlKv6pwV7CI6BIiY-14" style="edgeStyle=orthogonalEdgeStyle;rounded=0;orthogonalLoop=1;jettySize=auto;html=1;entryX=0;entryY=0.5;entryDx=0;entryDy=0;" edge="1" parent="1" source="WGvVJlKv6pwV7CI6BIiY-12" target="WGvVJlKv6pwV7CI6BIiY-8">
          <mxGeometry relative="1" as="geometry">
            <Array as="points">
              <mxPoint x="240" y="630" />
              <mxPoint x="240" y="520" />
            </Array>
          </mxGeometry>
        </mxCell>
        <mxCell id="WGvVJlKv6pwV7CI6BIiY-17" value="" style="edgeStyle=orthogonalEdgeStyle;rounded=0;orthogonalLoop=1;jettySize=auto;html=1;" edge="1" parent="1" source="WGvVJlKv6pwV7CI6BIiY-12">
          <mxGeometry relative="1" as="geometry">
            <mxPoint x="400" y="720" as="targetPoint" />
          </mxGeometry>
        </mxCell>
        <mxCell id="WGvVJlKv6pwV7CI6BIiY-12" value="后继车道是否存在分叉路口" style="rhombus;whiteSpace=wrap;html=1;rounded=0;" vertex="1" parent="1">
          <mxGeometry x="290" y="590" width="220" height="80" as="geometry" />
        </mxCell>
        <mxCell id="WGvVJlKv6pwV7CI6BIiY-15" value="是" style="text;html=1;align=center;verticalAlign=middle;resizable=0;points=[];autosize=1;strokeColor=none;fillColor=none;" vertex="1" parent="1">
          <mxGeometry x="235" y="560" width="30" height="20" as="geometry" />
        </mxCell>
        <mxCell id="WGvVJlKv6pwV7CI6BIiY-18" value="否" style="text;html=1;align=center;verticalAlign=middle;resizable=0;points=[];autosize=1;strokeColor=none;fillColor=none;" vertex="1" parent="1">
          <mxGeometry x="405" y="680" width="30" height="20" as="geometry" />
        </mxCell>
        <mxCell id="WGvVJlKv6pwV7CI6BIiY-21" value="" style="edgeStyle=orthogonalEdgeStyle;rounded=0;orthogonalLoop=1;jettySize=auto;html=1;" edge="1" parent="1" source="WGvVJlKv6pwV7CI6BIiY-19" target="WGvVJlKv6pwV7CI6BIiY-20">
          <mxGeometry relative="1" as="geometry" />
        </mxCell>
        <mxCell id="WGvVJlKv6pwV7CI6BIiY-23" style="edgeStyle=orthogonalEdgeStyle;rounded=0;orthogonalLoop=1;jettySize=auto;html=1;" edge="1" parent="1" source="WGvVJlKv6pwV7CI6BIiY-19">
          <mxGeometry relative="1" as="geometry">
            <mxPoint x="240" y="630" as="targetPoint" />
          </mxGeometry>
        </mxCell>
        <mxCell id="WGvVJlKv6pwV7CI6BIiY-19" value="&lt;div&gt;FrontLongEnough()&amp;nbsp; &amp;gt; 150&lt;/div&gt;&lt;div&gt;提路长度是否足够&lt;br&gt;&lt;/div&gt;" style="rhombus;whiteSpace=wrap;html=1;" vertex="1" parent="1">
          <mxGeometry x="295" y="720" width="210" height="90" as="geometry" />
        </mxCell>
        <mxCell id="WGvVJlKv6pwV7CI6BIiY-40" style="edgeStyle=orthogonalEdgeStyle;rounded=0;orthogonalLoop=1;jettySize=auto;html=1;" edge="1" parent="1" source="WGvVJlKv6pwV7CI6BIiY-20" target="WGvVJlKv6pwV7CI6BIiY-39">
          <mxGeometry relative="1" as="geometry" />
        </mxCell>
        <mxCell id="WGvVJlKv6pwV7CI6BIiY-20" value="&lt;div&gt;frontlaness&lt;/div&gt;&lt;div&gt;得到前向的提路道路模型&lt;br&gt;&lt;/div&gt;" style="whiteSpace=wrap;html=1;" vertex="1" parent="1">
          <mxGeometry x="340" y="870" width="120" height="60" as="geometry" />
        </mxCell>
        <mxCell id="WGvVJlKv6pwV7CI6BIiY-22" value="是" style="text;html=1;align=center;verticalAlign=middle;resizable=0;points=[];autosize=1;strokeColor=none;fillColor=none;" vertex="1" parent="1">
          <mxGeometry x="405" y="830" width="30" height="20" as="geometry" />
        </mxCell>
        <mxCell id="WGvVJlKv6pwV7CI6BIiY-24" value="否" style="text;html=1;align=center;verticalAlign=middle;resizable=0;points=[];autosize=1;strokeColor=none;fillColor=none;" vertex="1" parent="1">
          <mxGeometry x="235" y="690" width="30" height="20" as="geometry" />
        </mxCell>
        <mxCell id="WGvVJlKv6pwV7CI6BIiY-30" value="" style="edgeStyle=orthogonalEdgeStyle;rounded=0;orthogonalLoop=1;jettySize=auto;html=1;" edge="1" parent="1" source="WGvVJlKv6pwV7CI6BIiY-25" target="WGvVJlKv6pwV7CI6BIiY-26">
          <mxGeometry relative="1" as="geometry" />
        </mxCell>
        <mxCell id="WGvVJlKv6pwV7CI6BIiY-25" value="&lt;div&gt;&lt;br&gt;&lt;/div&gt;&lt;div&gt;GetLanePredecessorIds()&lt;/div&gt;&lt;div&gt;计算当前车道的前序车道&lt;br&gt;&lt;/div&gt;" style="whiteSpace=wrap;html=1;rounded=0;" vertex="1" parent="1">
          <mxGeometry x="560" y="490" width="180" height="60" as="geometry" />
        </mxCell>
        <mxCell id="WGvVJlKv6pwV7CI6BIiY-31" value="" style="edgeStyle=orthogonalEdgeStyle;rounded=0;orthogonalLoop=1;jettySize=auto;html=1;" edge="1" parent="1" source="WGvVJlKv6pwV7CI6BIiY-26" target="WGvVJlKv6pwV7CI6BIiY-27">
          <mxGeometry relative="1" as="geometry" />
        </mxCell>
        <mxCell id="WGvVJlKv6pwV7CI6BIiY-35" style="edgeStyle=orthogonalEdgeStyle;rounded=0;orthogonalLoop=1;jettySize=auto;html=1;entryX=1;entryY=0.5;entryDx=0;entryDy=0;" edge="1" parent="1" source="WGvVJlKv6pwV7CI6BIiY-26" target="WGvVJlKv6pwV7CI6BIiY-25">
          <mxGeometry relative="1" as="geometry">
            <Array as="points">
              <mxPoint x="810" y="630" />
              <mxPoint x="810" y="520" />
            </Array>
          </mxGeometry>
        </mxCell>
        <mxCell id="WGvVJlKv6pwV7CI6BIiY-26" value="前序车道是否存在分叉路口" style="rhombus;whiteSpace=wrap;html=1;rounded=0;" vertex="1" parent="1">
          <mxGeometry x="540" y="590" width="220" height="80" as="geometry" />
        </mxCell>
        <mxCell id="WGvVJlKv6pwV7CI6BIiY-32" value="" style="edgeStyle=orthogonalEdgeStyle;rounded=0;orthogonalLoop=1;jettySize=auto;html=1;" edge="1" parent="1" source="WGvVJlKv6pwV7CI6BIiY-27" target="WGvVJlKv6pwV7CI6BIiY-28">
          <mxGeometry relative="1" as="geometry" />
        </mxCell>
        <mxCell id="WGvVJlKv6pwV7CI6BIiY-37" style="edgeStyle=orthogonalEdgeStyle;rounded=0;orthogonalLoop=1;jettySize=auto;html=1;" edge="1" parent="1" source="WGvVJlKv6pwV7CI6BIiY-27">
          <mxGeometry relative="1" as="geometry">
            <mxPoint x="810" y="630" as="targetPoint" />
          </mxGeometry>
        </mxCell>
        <mxCell id="WGvVJlKv6pwV7CI6BIiY-27" value="&lt;div&gt;BackLongEnough()&amp;nbsp; &amp;gt; 150&lt;/div&gt;&lt;div&gt;提路长度是否足够&lt;br&gt;&lt;/div&gt;" style="rhombus;whiteSpace=wrap;html=1;" vertex="1" parent="1">
          <mxGeometry x="545" y="720" width="210" height="90" as="geometry" />
        </mxCell>
        <mxCell id="WGvVJlKv6pwV7CI6BIiY-41" style="edgeStyle=orthogonalEdgeStyle;rounded=0;orthogonalLoop=1;jettySize=auto;html=1;entryX=0.5;entryY=0;entryDx=0;entryDy=0;" edge="1" parent="1" source="WGvVJlKv6pwV7CI6BIiY-28" target="WGvVJlKv6pwV7CI6BIiY-39">
          <mxGeometry relative="1" as="geometry">
            <Array as="points">
              <mxPoint x="650" y="960" />
              <mxPoint x="520" y="960" />
            </Array>
          </mxGeometry>
        </mxCell>
        <mxCell id="WGvVJlKv6pwV7CI6BIiY-28" value="&lt;div&gt;backlaness&lt;/div&gt;&lt;div&gt;得到后向的提路道路模型&lt;br&gt;&lt;/div&gt;" style="whiteSpace=wrap;html=1;" vertex="1" parent="1">
          <mxGeometry x="590" y="870" width="120" height="60" as="geometry" />
        </mxCell>
        <mxCell id="WGvVJlKv6pwV7CI6BIiY-33" value="是" style="text;html=1;align=center;verticalAlign=middle;resizable=0;points=[];autosize=1;strokeColor=none;fillColor=none;" vertex="1" parent="1">
          <mxGeometry x="645" y="830" width="30" height="20" as="geometry" />
        </mxCell>
        <mxCell id="WGvVJlKv6pwV7CI6BIiY-34" value="否" style="text;html=1;align=center;verticalAlign=middle;resizable=0;points=[];autosize=1;strokeColor=none;fillColor=none;" vertex="1" parent="1">
          <mxGeometry x="645" y="680" width="30" height="20" as="geometry" />
        </mxCell>
        <mxCell id="WGvVJlKv6pwV7CI6BIiY-36" value="是" style="text;html=1;align=center;verticalAlign=middle;resizable=0;points=[];autosize=1;strokeColor=none;fillColor=none;" vertex="1" parent="1">
          <mxGeometry x="785" y="560" width="30" height="20" as="geometry" />
        </mxCell>
        <mxCell id="WGvVJlKv6pwV7CI6BIiY-38" value="否" style="text;html=1;align=center;verticalAlign=middle;resizable=0;points=[];autosize=1;strokeColor=none;fillColor=none;" vertex="1" parent="1">
          <mxGeometry x="775" y="680" width="30" height="20" as="geometry" />
        </mxCell>
        <mxCell id="WGvVJlKv6pwV7CI6BIiY-43" value="" style="edgeStyle=orthogonalEdgeStyle;rounded=0;orthogonalLoop=1;jettySize=auto;html=1;" edge="1" parent="1" source="WGvVJlKv6pwV7CI6BIiY-39" target="WGvVJlKv6pwV7CI6BIiY-42">
          <mxGeometry relative="1" as="geometry" />
        </mxCell>
        <mxCell id="WGvVJlKv6pwV7CI6BIiY-39" value="&lt;div&gt;DeleteRepeatLines()&lt;/div&gt;&lt;div&gt;删除重复道路&lt;br&gt;&lt;/div&gt;" style="rounded=0;whiteSpace=wrap;html=1;" vertex="1" parent="1">
          <mxGeometry x="460" y="990" width="120" height="60" as="geometry" />
        </mxCell>
        <mxCell id="WGvVJlKv6pwV7CI6BIiY-42" value="&lt;div&gt;alllinelists&lt;/div&gt;&lt;div&gt;得到组合后的道路模型&lt;br&gt;&lt;/div&gt;" style="whiteSpace=wrap;html=1;rounded=0;" vertex="1" parent="1">
          <mxGeometry x="460" y="1090" width="120" height="60" as="geometry" />
        </mxCell>
      </root>
    </mxGraphModel>
  </diagram>
</mxfile>
